<svg width="18" height="18" viewBox="0 0 18 18" fill="none" xmlns="http://www.w3.org/2000/svg">
<path d="M8.99214 0C7.24476 0.00331996 5.53606 0.514712 4.07416 1.47189C2.61226 2.42906 1.46026 3.7907 0.758475 5.39096C0.0566908 6.99122 -0.164587 8.76103 0.121594 10.4848C0.407775 12.2086 1.18906 13.812 2.37029 15.0996C3.21395 16.0141 4.23787 16.7439 5.37755 17.2431C6.51722 17.7423 7.74794 18 8.99214 18C10.2363 18 11.4671 17.7423 12.6067 17.2431C13.7464 16.7439 14.7703 16.0141 15.614 15.0996C16.7952 13.812 17.5765 12.2086 17.8627 10.4848C18.1489 8.76103 17.9276 6.99122 17.2258 5.39096C16.524 3.7907 15.372 2.42906 13.9101 1.47189C12.4482 0.514712 10.7395 0.00331996 8.99214 0ZM8.99214 16.2168C7.12583 16.2139 5.33338 15.4873 3.99197 14.1897C4.39923 13.1982 5.09204 12.3502 5.98236 11.7534C6.87267 11.1567 7.92031 10.838 8.99214 10.838C10.064 10.838 11.1116 11.1567 12.0019 11.7534C12.8922 12.3502 13.585 13.1982 13.9923 14.1897C12.6509 15.4873 10.8584 16.2139 8.99214 16.2168ZM7.19028 7.20745C7.19028 6.85107 7.29595 6.5027 7.49394 6.20639C7.69194 5.91007 7.97335 5.67912 8.3026 5.54275C8.63184 5.40637 8.99414 5.37068 9.34366 5.44021C9.69319 5.50973 10.0143 5.68135 10.2662 5.93334C10.5182 6.18534 10.6899 6.5064 10.7594 6.85592C10.8289 7.20545 10.7932 7.56774 10.6568 7.89699C10.5205 8.22624 10.2895 8.50765 9.9932 8.70564C9.69688 8.90363 9.34851 9.00931 8.99214 9.00931C8.51425 9.00931 8.05594 8.81947 7.71803 8.48156C7.38011 8.14364 7.19028 7.68533 7.19028 7.20745ZM15.2176 12.613C14.4126 11.2362 13.1737 10.1652 11.6949 9.56789C12.1537 9.04774 12.4526 8.40628 12.5557 7.72047C12.6589 7.03467 12.5621 6.33365 12.2767 5.70154C11.9914 5.06943 11.5297 4.53309 10.9471 4.15687C10.3645 3.78064 9.68567 3.58052 8.99214 3.58052C8.29861 3.58052 7.61981 3.78064 7.0372 4.15687C6.45459 4.53309 5.99291 5.06943 5.70757 5.70154C5.42222 6.33365 5.32534 7.03467 5.42853 7.72047C5.53173 8.40628 5.83062 9.04774 6.28935 9.56789C4.81055 10.1652 3.57166 11.2362 2.7667 12.613C2.12519 11.5203 1.78624 10.2764 1.78469 9.00931C1.78469 7.09778 2.54404 5.26453 3.8957 3.91288C5.24736 2.56122 7.0806 1.80186 8.99214 1.80186C10.9037 1.80186 12.7369 2.56122 14.0886 3.91288C15.4402 5.26453 16.1996 7.09778 16.1996 9.00931C16.198 10.2764 15.8591 11.5203 15.2176 12.613Z" fill="#4F58B8"/>
</svg>
