<svg width="20" height="20" viewBox="0 0 20 20" fill="none" xmlns="http://www.w3.org/2000/svg">
<path fill-rule="evenodd" clip-rule="evenodd" d="M9.99166 1.66666C5.39166 1.66666 1.66666 5.39999 1.66666 9.99999C1.66666 14.6 5.39166 18.3333 9.99166 18.3333C14.6 18.3333 18.3333 14.6 18.3333 9.99999C18.3333 5.39999 14.6 1.66666 9.99166 1.66666ZM9.99999 16.6667C6.31666 16.6667 3.33332 13.6833 3.33332 9.99999C3.33332 6.31666 6.31666 3.33332 9.99999 3.33332C13.6833 3.33332 16.6667 6.31666 16.6667 9.99999C16.6667 13.6833 13.6833 16.6667 9.99999 16.6667ZM9.16666 5.83332H10.4167V10.2083L14.1667 12.4333L13.5417 13.4583L9.16666 10.8333V5.83332Z" fill="#4F58B8"/>
<mask id="mask0" mask-type="alpha" maskUnits="userSpaceOnUse" x="1" y="1" width="18" height="18">
<path fill-rule="evenodd" clip-rule="evenodd" d="M9.99166 1.66666C5.39166 1.66666 1.66666 5.39999 1.66666 9.99999C1.66666 14.6 5.39166 18.3333 9.99166 18.3333C14.6 18.3333 18.3333 14.6 18.3333 9.99999C18.3333 5.39999 14.6 1.66666 9.99166 1.66666ZM9.99999 16.6667C6.31666 16.6667 3.33332 13.6833 3.33332 9.99999C3.33332 6.31666 6.31666 3.33332 9.99999 3.33332C13.6833 3.33332 16.6667 6.31666 16.6667 9.99999C16.6667 13.6833 13.6833 16.6667 9.99999 16.6667ZM9.16666 5.83332H10.4167V10.2083L14.1667 12.4333L13.5417 13.4583L9.16666 10.8333V5.83332Z" fill="white"/>
</mask>
<g mask="url(#mask0)">
<path fill-rule="evenodd" clip-rule="evenodd" d="M0 0H20V20H0V0Z" fill="#4F58B8"/>
</g>
</svg>
