<svg width="16" height="16" viewBox="0 0 16 16" fill="none" xmlns="http://www.w3.org/2000/svg">
<path d="M15.7753 14.6511L12.8091 11.7067C13.9605 10.2699 14.5181 8.44635 14.3672 6.61085C14.2163 4.77535 13.3685 3.06745 11.998 1.83834C10.6275 0.609226 8.83848 -0.0476794 6.99887 0.00269722C5.15925 0.0530739 3.40884 0.806903 2.10755 2.10918C0.80626 3.41146 0.0530031 5.1632 0.00266465 7.00421C-0.0476738 8.84523 0.608733 10.6356 1.83691 12.0071C3.06509 13.3787 4.77169 14.2272 6.6058 14.3781C8.43991 14.5291 10.2621 13.9711 11.6977 12.8188L14.64 15.7633C14.7143 15.8383 14.8027 15.8978 14.9002 15.9385C14.9976 15.9791 15.1021 16 15.2076 16C15.3132 16 15.4177 15.9791 15.5151 15.9385C15.6126 15.8978 15.701 15.8383 15.7753 15.7633C15.9194 15.6141 16 15.4147 16 15.2072C16 14.9997 15.9194 14.8003 15.7753 14.6511ZM7.2124 12.8188C6.10548 12.8188 5.02343 12.4903 4.10306 11.8749C3.18269 11.2595 2.46535 10.3847 2.04175 9.36129C1.61815 8.33786 1.50732 7.2117 1.72327 6.12523C1.93922 5.03875 2.47225 4.04076 3.25496 3.25746C4.03767 2.47416 5.0349 1.94072 6.12055 1.72461C7.20619 1.50849 8.3315 1.61941 9.35416 2.04333C10.3768 2.46725 11.2509 3.18514 11.8659 4.1062C12.4808 5.02727 12.8091 6.11015 12.8091 7.21791C12.8091 8.70337 12.2194 10.128 11.1698 11.1784C10.1203 12.2287 8.69673 12.8188 7.2124 12.8188Z" fill="#9EA8AB"/>
</svg>
